<svg xmlns="http://www.w3.org/2000/svg" width="490" height="464" viewBox="0 0 490 464" font-family="ui-monospace, SFMono-Regular, 'SF Mono', Menlo, Consolas, 'Liberation Mono', 'DejaVu Sans Mono', monospace" role="img" aria-label="Statistiques GitHub : 352 contributions, série en cours 0 j, plus longue série 5 j, 51 jours actifs"><style>@keyframes up{from{opacity:0;transform:translateY(6px)}to{opacity:1;transform:none}}@keyframes grow{from{transform:scaleY(0)}to{transform:none}}.t{animation:up .45s ease-out both}.b{transform-box:fill-box;transform-origin:50% 100%;animation:grow .6s cubic-bezier(.2,.8,.3,1) both}@media (prefers-reduced-motion: reduce){*{animation:none!important}}</style><g transform="scale(1)"><rect x="0.5" y="0.5" width="489" height="463" rx="10" fill="#0d1117" stroke="#30363d"/><path d="M0.5 30V10.5a10 10 0 0 1 10-10h469a10 10 0 0 1 10 10V30Z" fill="#161b22"/><line x1="0.5" y1="30" x2="489.5" y2="30" stroke="#30363d"/><circle cx="18" cy="15.0" r="5.5" fill="#ff5f56"/><circle cx="36" cy="15.0" r="5.5" fill="#ffbd2e"/><circle cx="54" cy="15.0" r="5.5" fill="#27c93f"/><text x="245" y="19.0" text-anchor="middle" font-size="12" fill="#8b949e">lucas@github: ~/stats.sh</text></g><g class="t" style="animation-delay:0.20s"><rect x="14.0" y="44.0" width="226.0" height="72" rx="6" fill="#161b22" stroke="#30363d"/><text x="26.0" y="63.0" font-size="11" fill="#8b949e">$ série en cours</text><text x="26.0" y="90.0" font-size="24" font-weight="700" fill="#39d353">0<tspan font-size="12" font-weight="400" fill="#8b949e"> jour</tspan></text><text x="26.0" y="106.0" font-size="10" fill="#8b949e">aucune en cours</text></g><g class="t" style="animation-delay:0.32s"><rect x="250.0" y="44.0" width="226.0" height="72" rx="6" fill="#161b22" stroke="#30363d"/><text x="262.0" y="63.0" font-size="11" fill="#8b949e">$ plus longue série</text><text x="262.0" y="90.0" font-size="24" font-weight="700" fill="#39d353">5<tspan font-size="12" font-weight="400" fill="#8b949e"> jours</tspan></text><text x="262.0" y="106.0" font-size="10" fill="#8b949e">4 févr. → 8 févr.</text></g><g class="t" style="animation-delay:0.44s"><rect x="14.0" y="126.0" width="226.0" height="72" rx="6" fill="#161b22" stroke="#30363d"/><text x="26.0" y="145.0" font-size="11" fill="#8b949e">$ contributions</text><text x="26.0" y="172.0" font-size="24" font-weight="700" fill="#39d353">352</text><text x="26.0" y="188.0" font-size="10" fill="#8b949e">sur la dernière année</text></g><g class="t" style="animation-delay:0.56s"><rect x="250.0" y="126.0" width="226.0" height="72" rx="6" fill="#161b22" stroke="#30363d"/><text x="262.0" y="145.0" font-size="11" fill="#8b949e">$ jours actifs</text><text x="262.0" y="172.0" font-size="24" font-weight="700" fill="#39d353">51<tspan font-size="12" font-weight="400" fill="#8b949e"> / 371</tspan></text><text x="262.0" y="188.0" font-size="10" fill="#8b949e">14 % de l'année</text></g><g class="t" style="animation-delay:0.68s"><rect x="14.0" y="208.0" width="226.0" height="72" rx="6" fill="#161b22" stroke="#30363d"/><text x="26.0" y="227.0" font-size="11" fill="#8b949e">$ meilleur jour</text><text x="26.0" y="254.0" font-size="24" font-weight="700" fill="#39d353">30</text><text x="26.0" y="270.0" font-size="10" fill="#8b949e">29 sept.</text></g><g class="t" style="animation-delay:0.80s"><rect x="250.0" y="208.0" width="226.0" height="72" rx="6" fill="#161b22" stroke="#30363d"/><text x="262.0" y="227.0" font-size="11" fill="#8b949e">$ moy. / jour actif</text><text x="262.0" y="254.0" font-size="24" font-weight="700" fill="#39d353">6,9</text><text x="262.0" y="270.0" font-size="10" fill="#8b949e">contributions</text></g><g class="t" style="animation-delay:0.92s"><rect x="14" y="290.0" width="462" height="160.0" rx="6" fill="#161b22" stroke="#30363d"/><text x="26" y="309.0" font-size="11" fill="#8b949e">$ contributions / mois</text></g><rect class="b" style="animation-delay:1.22s" x="32.4" y="422.4" width="20.9" height="3.6" rx="2" fill="#26a641" opacity="1"><title>2025-10 : 4</title></rect><text class="t" style="animation-delay:0.92s" x="42.8" y="441.0" text-anchor="middle" font-size="10" fill="#8b949e">O</text><rect class="b" style="animation-delay:1.28s" x="66.1" y="418.9" width="20.9" height="7.1" rx="2" fill="#26a641" opacity="1"><title>2025-11 : 8</title></rect><text class="t" style="animation-delay:0.92s" x="76.5" y="441.0" text-anchor="middle" font-size="10" fill="#8b949e">N</text><rect class="b" style="animation-delay:1.34s" x="99.8" y="424.0" width="20.9" height="2.0" rx="2" fill="#26a641" opacity="0.35"><title>2025-12 : 0</title></rect><text class="t" style="animation-delay:0.92s" x="110.2" y="441.0" text-anchor="middle" font-size="10" fill="#8b949e">D</text><rect class="b" style="animation-delay:1.40s" x="133.5" y="409.9" width="20.9" height="16.1" rx="2" fill="#26a641" opacity="1"><title>2026-01 : 18</title></rect><text class="t" style="animation-delay:0.92s" x="143.9" y="441.0" text-anchor="middle" font-size="10" fill="#8b949e">J</text><rect class="b" style="animation-delay:1.46s" x="167.2" y="340.3" width="20.9" height="85.7" rx="2" fill="#26a641" opacity="1"><title>2026-02 : 96</title></rect><text class="t" style="animation-delay:0.92s" x="177.6" y="441.0" text-anchor="middle" font-size="10" fill="#8b949e">F</text><rect class="b" style="animation-delay:1.52s" x="200.9" y="424.0" width="20.9" height="2.0" rx="2" fill="#26a641" opacity="1"><title>2026-03 : 2</title></rect><text class="t" style="animation-delay:0.92s" x="211.3" y="441.0" text-anchor="middle" font-size="10" fill="#8b949e">M</text><rect class="b" style="animation-delay:1.58s" x="234.6" y="395.6" width="20.9" height="30.4" rx="2" fill="#26a641" opacity="1"><title>2026-04 : 34</title></rect><text class="t" style="animation-delay:0.92s" x="245.0" y="441.0" text-anchor="middle" font-size="10" fill="#8b949e">A</text><rect class="b" style="animation-delay:1.64s" x="268.2" y="423.3" width="20.9" height="2.7" rx="2" fill="#26a641" opacity="1"><title>2026-05 : 3</title></rect><text class="t" style="animation-delay:0.92s" x="278.7" y="441.0" text-anchor="middle" font-size="10" fill="#8b949e">M</text><rect class="b" style="animation-delay:1.70s" x="301.9" y="424.0" width="20.9" height="2.0" rx="2" fill="#26a641" opacity="1"><title>2026-06 : 1</title></rect><text class="t" style="animation-delay:0.92s" x="312.4" y="441.0" text-anchor="middle" font-size="10" fill="#8b949e">J</text><rect class="b" style="animation-delay:1.76s" x="335.6" y="418.0" width="20.9" height="8.0" rx="2" fill="#26a641" opacity="1"><title>2026-07 : 9</title></rect><text class="t" style="animation-delay:0.92s" x="346.1" y="441.0" text-anchor="middle" font-size="10" fill="#8b949e">J</text><rect class="b" style="animation-delay:1.82s" x="369.3" y="402.8" width="20.9" height="23.2" rx="2" fill="#26a641" opacity="1"><title>2026-08 : 26</title></rect><text class="t" style="animation-delay:0.92s" x="379.8" y="441.0" text-anchor="middle" font-size="10" fill="#8b949e">A</text><rect class="b" style="animation-delay:1.88s" x="403.0" y="334.0" width="20.9" height="92.0" rx="2" fill="#69f0a0" opacity="1"><title>2026-09 : 103</title></rect><text class="t" style="animation-delay:0.92s" x="413.5" y="441.0" text-anchor="middle" font-size="10" fill="#8b949e">S</text><text class="t" style="animation-delay:2.38s" x="413.5" y="328.0" text-anchor="middle" font-size="11" font-weight="700" fill="#c9d1d9">103</text><rect class="b" style="animation-delay:1.94s" x="436.7" y="383.1" width="20.9" height="42.9" rx="2" fill="#26a641" opacity="1"><title>2026-10 : 48</title></rect><text class="t" style="animation-delay:0.92s" x="447.2" y="441.0" text-anchor="middle" font-size="10" fill="#8b949e">O</text></svg>
